# xmcd
#
# Track frame offsets: 
#        150
#        19907
#        35267
#        54872
#        76094
#        97582
#        112232
#        126615
#        142560
#        165210
#        183203
#
# Disc length: 2675 seconds
#
# Revision: 0
# Processed by: cddbd v1.5.2PL0 Copyright (c) Steve Scherf et al.
# Submitted via: ExactAudioCopy v0.99pb5
#
DISCID=770a710b
DTITLE=Various Artist - Garantat 100 %
DYEAR=2007
DGENRE=Manele
TTITLE0=Nicolae Guta - Hai ghiceste, hai ghiceste
TTITLE1=Baboi - La mine in buzunar, casa de schimb valutar
TTITLE2=Elis Armeanca si Morgana - Sa mor sarac din dragoste
TTITLE3=Liviu Pustiu - Laky boy boy
TTITLE4=Florin Salam - Asa mai zic Doamne viata
TTITLE5=Vasile Armeanca - Astazi daca am un nume
TTITLE6=Baboi - Geam la burta
TTITLE7=Geo - Degeaba plangi
TTITLE8=Mioara Jacksona - Cum e cerul fara soare
TTITLE9=Sorinel Pustiu - M-ai chinuit, mi-ai facut rau
TTITLE10=Denisa - Tu imi dai o floare eu o sarutare
EXTD=
EXTT0=
EXTT1=
EXTT2=
EXTT3=
EXTT4=
EXTT5=
EXTT6=
EXTT7=
EXTT8=
EXTT9=
EXTT10=
PLAYORDER=
